<svg xmlns="http://www.w3.org/2000/svg" viewBox="0 0 300 300" fill="none">
  <g fill-rule="nonzero">
    <path d="M206.71436,172.7666c6.4292,-0.6416 14.22803,1.1001 19.89697,4.10742c16.92334,8.97949 24.1875,31.34619 14.80518,48.28125c-2.78906,5.26172 -7.12646,9.0498 -11.3291,13.03711c-10.22168,9.69727 -20.36572,16.91162 -34.18799,20.53418c-9.36914,2.45508 -17.73633,3.06006 -27.36621,3.67969c-26.03804,1.67285 -51.44253,-1.79443 -74.30435,-15.01904c-13.87397,-8.12842 -25.58232,-19.48389 -34.13203,-33.10254c-2.39502,-3.75732 -5.18438,-8.77148 -6.83936,-12.91113c1.69585,0.93311 3.29897,2.19873 4.99263,3.16846c10.95015,6.26953 23.46797,9.10254 35.88999,10.34033c28.84849,2.87402 58.65483,-5.01416 80.98052,-23.86377c0.82617,-0.69727 1.75781,-1.35352 2.59131,-2.04932c3.0249,-2.18408 5.42285,-4.94824 8.2251,-7.38135c5.90039,-5.12402 12.95508,-8.23242 20.77734,-8.82129z" fill="#4286db"/>
    <path d="M53.65444,90.404c0.62534,-0.99639 1.84204,-3.69185 2.51323,-4.94912c1.81787,-3.45044 3.82617,-6.79717 6.01538,-10.0248c15.20435,-22.62437 39.8562,-37.66597 66.37588,-42.71499c31.8605,-6.04072 67.09292,-1.99189 94.2731,16.6437c9.56836,6.71279 18.67236,14.21162 21.65332,26.07495c3.60938,14.37114 -2.23535,29.75142 -14.26318,38.26099c-12.75146,9.02095 -30.76465,8.51836 -42.89502,-1.35674c-2.89453,-2.35635 -5.33789,-5.05986 -8.08301,-7.57251c-3.12305,-2.85835 -6.56396,-5.64917 -10.05615,-8.06235c-24.50713,-16.85537 -54.66401,-23.38696 -83.94902,-18.18223c-0.86733,1.43687 -3.427,1.79648 -4.67505,0.94087c-1.64268,0.51006 -3.75439,0.8502 -5.50781,1.35938c-3.86909,1.12339 -7.78989,2.45493 -11.47192,4.09336c-1.86284,0.89517 -3.72422,1.81816 -5.52085,2.83931c-1.49399,0.84917 -2.85469,1.91089 -4.40889,2.6502z" fill="#4286db"/>
    <path d="M80.56392,79.46177c1.70303,-0.39009 2.9502,-0.65024 4.67505,-0.94087c-0.86733,1.43687 -3.427,1.79648 -4.67505,0.94087z" fill="#04053d"/>
    <path d="M104.80283,83.41772c15.53701,-0.13623 30.91611,3.12451 45.06094,9.55371c1.88379,0.85811 4.0708,2.18057 6.02051,3.15293l-0.13477,-0.00352c-1.30371,-0.02212 -2.60596,0.16099 -3.89648,0.22046c-22.57163,1.04004 -34.21333,19.81362 -36.4062,40.3749c-2.93145,27.48691 6.26558,59.78086 39.53071,59.62705c-7.8252,4.45459 -16.14448,7.34326 -24.86821,9.41016c-16.49868,4.35791 -36.62725,3.43799 -52.98794,-1.00195c-9.23467,-2.50635 -16.69541,-6.19775 -24.0665,-12.17725c-0.94292,-0.76465 -4.22446,-2.7876 -4.55361,-3.77783c-7.5936,-22.83691 -8.21543,-48.21372 -3.57583,-71.7438c1.00781,-5.10381 2.41069,-9.73638 3.80625,-14.46987c4.01968,-2.85205 8.17793,-6.40708 12.38833,-8.84136c10.12368,-5.85293 22.56768,-8.78921 34.13174,-9.85972c3.08306,-0.2855 6.46099,-0.35991 9.55107,-0.46392z" fill="#4286db"/>
  </g>
</svg>
